<svg class="h-full" viewBox="0 0 1073 1100" fill="none" xmlns="http://www.w3.org/2000/svg">
<path d="M657.582 543.505C654.411 534.895 653.052 530.363 651.693 520.845C648.976 509.062 639.463 506.796 634.027 495.919C624.968 479.604 630.404 467.821 630.404 448.786C629.951 425.673 632.669 412.53 623.156 390.777C619.079 382.619 618.627 375.368 624.515 368.117C640.369 348.629 661.206 359.053 686.119 355.427C696.084 354.067 697.896 346.363 706.049 340.018C711.938 335.033 718.28 348.629 717.827 356.333C716.468 374.008 714.203 383.072 714.203 400.294C714.203 407.545 726.433 397.575 729.604 390.777C739.116 371.289 740.475 359.506 741.381 337.299C742.287 303.762 752.705 286.994 771.277 257.989C784.413 237.142 786.678 222.639 786.678 197.713C786.225 164.176 776.259 147.861 773.542 113.871C771.73 96.1959 779.883 86.6787 792.566 73.5359C805.703 59.4867 803.891 46.797 807.967 27.3094C810.685 13.2601 828.804 18.6985 838.316 7.36848C841.487 3.74288 832.881 -0.789133 827.898 0.117269C812.044 3.28968 803.891 6.91526 792.566 17.7921C769.012 40.4521 777.618 66.7379 754.517 88.9447C737.757 105.26 720.997 100.728 697.896 100.728C689.29 100.728 694.725 88.9447 692.007 80.7871C686.119 65.3783 672.983 97.5556 663.47 111.152C651.693 127.92 642.181 135.171 636.292 154.206C624.968 187.743 618.627 204.058 605.49 236.688C598.243 254.816 582.842 260.708 563.817 260.708C553.852 260.708 547.51 260.708 540.263 266.6C530.751 274.304 523.503 273.851 512.179 274.757C499.043 276.117 491.342 276.57 481.377 284.274C463.258 298.777 446.952 296.511 427.474 293.338C420.227 291.979 412.526 291.072 404.373 290.166C391.237 289.713 383.989 290.166 372.212 294.698C353.187 302.402 341.41 292.432 321.48 292.432C300.19 292.432 279.5 302 274.616 313C266.916 334.754 277.995 346.363 283.43 365.851C287.507 382.619 278.901 393.043 268.029 405.732C254.44 421.594 258.064 436.55 261.235 456.944C263.5 475.978 249.911 491.84 231.339 494.56C219.562 496.826 215.485 504.077 209.143 513.594C197.366 530.816 229.98 537.161 248.099 546.678C266.217 556.648 276.183 560.727 296.566 564.806C304.267 566.619 303.814 577.949 300.19 584.747C289.319 605.594 268.935 600.156 248.099 609.673C232.698 617.377 222.28 609.673 205.52 609.673C187.401 609.673 178.342 607.407 160.676 604.688C146.634 602.875 142.557 616.018 133.498 625.988C126.703 633.692 116.738 631.88 108.584 625.988C99.978 620.55 93.1836 615.564 83.6712 619.19C72.347 623.722 76.4237 640.49 84.5772 648.648C104.508 669.948 101.337 690.796 99.9781 719.801C99.0722 736.116 76.8767 729.771 61.0228 731.584C35.2036 735.209 28.4091 755.603 16.179 777.81C4.40178 799.111 -2.39275 812.254 0.778028 835.82C2.13693 847.603 17.5379 850.776 27.9561 843.978C36.1096 835.82 47.8867 824.49 56.4931 805.909C60.5698 796.845 72.8 800.924 82.3123 805.003C94.5424 811.347 98.6191 817.692 108.584 827.209C119.003 838.086 129.874 835.82 145.275 835.82C152.975 835.82 157.958 838.539 163.847 843.978C171.094 851.682 162.035 863.465 171.094 868.904C183.777 877.061 192.837 863.012 207.785 863.012C215 863.012 221.374 865.731 230.433 868.904C241.304 873.436 245.381 877.515 255.346 884.313C263.5 890.658 237.68 887.938 229.074 882.047C221.046 877.138 214.335 879.26 205.914 881.922L205.52 882.047C196.913 885.219 195.554 892.017 186.948 893.377C162.488 898.362 188.307 931.445 199.631 953.199C212.767 979.938 222.733 991.721 239.945 1015.74C249.458 1030.24 263.047 1032.51 280.259 1030.24C313.779 1026.16 328.274 1012.57 360.435 1000.33C368.135 997.613 374.024 995.8 381.724 999.426C388.972 1003.5 393.502 1005.32 402.108 1003.96C431.098 1000.79 445.593 995.347 472.771 984.017C485.907 978.578 488.172 969.061 497.684 957.731C504.026 949.574 493.608 942.322 490.437 931.899C484.548 916.49 504.479 911.958 515.35 898.815C530.751 879.781 542.075 873.889 560.647 857.121C573.783 845.337 575.595 835.367 587.825 821.771C600.055 808.175 604.132 800.017 613.644 783.702C616.362 778.717 619.08 775.997 618.627 769.653C616.815 755.15 619.533 746.993 625.421 732.943C631.31 717.988 634.481 710.283 640.822 694.875C645.805 682.185 657.582 682.638 669.359 674.934C677.966 669.495 665.736 659.525 663.471 650.008C660.3 645.476 664.377 641.85 665.736 635.958C666.641 630.973 673.436 631.426 678.872 632.333C686.119 634.146 684.307 642.756 687.025 650.008C688.837 655.899 690.196 661.791 696.537 661.791C706.503 661.791 702.879 647.289 703.785 636.865C704.691 619.643 705.144 609.673 698.802 593.358C692.914 579.762 682.495 577.496 670.718 568.432C661.206 562.087 661.206 554.382 657.582 543.505Z" fill="#21C844"/>
<path d="M805.584 478.721C812.051 478.721 817.575 480.615 823.248 484.731C829.012 488.912 833.165 494.146 836.512 501.455C839.797 508.578 841.377 515.546 841.532 523.815C841.532 524.032 841.532 524.218 841.594 524.435C841.656 532.92 840.2 540.136 836.977 547.507C835.138 551.713 833.026 555.243 830.498 558.299C829.64 557.888 828.749 557.492 827.824 557.112C821.417 554.369 816.502 552.624 812.405 551.203C813.89 549.419 815.127 547.304 816.214 544.659C817.856 540.664 818.662 536.762 818.817 532.116C818.817 531.93 818.879 531.775 818.879 531.559C818.972 527.099 818.383 523.29 817.082 519.387C815.718 515.299 813.983 512.357 811.473 509.911C808.963 507.464 806.453 506.349 803.447 506.256C803.306 506.248 803.165 506.248 803.026 506.248C800.199 506.256 797.744 507.225 795.204 509.35C792.538 511.58 790.555 514.429 788.913 518.394C787.27 522.358 786.465 526.291 786.31 530.967C786.279 531.153 786.279 531.308 786.279 531.494C786.225 534.064 786.388 536.419 786.785 538.706C781 535.825 775.547 533.861 770.431 532.644C770.139 530.432 769.97 528.15 769.916 525.764V525.114C769.823 516.659 771.218 509.412 774.472 502.041C777.726 494.671 781.754 489.375 787.425 485.07C793.096 480.765 798.674 478.783 805.275 478.721C805.378 478.721 805.481 478.721 805.584 478.721ZM717.066 485.725C721.356 485.735 725.195 487.167 729.166 490.337C733.473 493.774 736.727 498.172 739.454 504.366C742.181 510.56 743.638 516.754 744.041 524.063V524.124C744.236 527.194 744.212 530.084 743.97 532.882C743.121 533.123 742.29 533.384 741.475 533.664C736.849 535.256 732.772 537.424 729.219 539.769C729.567 537.316 729.618 534.828 729.352 532.053C729.321 531.898 729.321 531.774 729.321 531.619C728.949 527.934 728.174 524.837 726.873 521.709C725.478 518.457 723.929 516.165 721.883 514.4C720.03 512.8 718.278 512.065 716.352 512.08C716.152 512.08 715.951 512.091 715.747 512.108C713.578 512.294 711.781 513.347 710.076 515.422C708.372 517.497 707.256 520.067 706.451 523.474C705.645 526.88 705.428 530.225 705.769 534.065C705.769 534.22 705.8 534.344 705.8 534.499C706.172 538.215 706.916 541.312 708.248 544.44C709.612 547.661 711.192 549.953 713.238 551.718C713.58 552.014 713.919 552.28 714.256 552.517C712.129 554.153 711.113 554.908 709.37 556.188C708.252 557.008 706.92 557.984 705.372 559.124C701.997 555.964 699.364 551.992 697.061 546.763C694.334 540.569 692.878 534.375 692.444 527.066V527.005C692.041 519.696 692.754 513.409 694.768 506.905C696.782 500.401 699.478 495.694 703.383 491.823C707.288 487.952 711.223 486 715.965 485.753C716.335 485.732 716.702 485.723 717.066 485.725ZM757.323 536.432C767.295 536.393 779.295 539.66 793.822 548.995C802.745 554.794 809.688 555.279 825.676 562.122L825.696 562.131L825.715 562.138C833.408 565.292 837.923 569.404 840.129 573.733C842.335 578.063 842.389 582.758 840.542 587.697C836.85 597.575 825.063 607.971 808.522 613.133L808.506 613.14L808.492 613.147C800.427 615.765 793.394 621.548 785.103 626.287C776.812 631.025 767.43 634.846 754.673 634.108C743.814 633.476 737.322 629.791 731.452 625.077C725.582 620.362 720.467 614.439 712.977 610.044L712.958 610.032L712.938 610.021C700.873 603.206 694.286 595.323 692.219 588.49C690.152 581.656 692.092 575.824 698.078 571.34C704.808 566.3 709.483 562.871 712.597 560.587C715.691 558.318 716.978 557.467 717.963 556.522C717.968 556.514 717.973 556.511 717.979 556.507L717.983 556.499C723.04 551.715 731.101 543 743.251 538.82C747.434 537.381 752.1 536.452 757.323 536.432ZM827.052 577.646C822.749 577.902 818.243 580.116 812.995 583.044C807.748 585.972 801.846 589.717 795.451 593.406C782.661 600.782 767.938 607.837 753.306 607.837C738.652 607.837 726.944 601.073 718.162 594.118C713.771 590.641 710.147 587.138 707.252 584.428C705.804 583.073 704.549 581.919 703.377 581.017C702.206 580.115 701.253 579.221 699.293 579.221L699.199 583.337C699.058 584.714 698.914 584.671 698.971 584.709C699.063 584.769 699.517 584.926 700.048 585.334C700.909 585.997 702.105 587.078 703.524 588.406C706.361 591.062 710.132 594.713 714.775 598.39C724.059 605.743 736.972 613.288 753.306 613.288C769.664 613.288 785.139 605.647 798.178 598.127C804.698 594.367 810.619 590.613 815.654 587.804C820.689 584.995 824.925 583.233 827.378 583.087L827.052 577.646ZM841.592 597.208C852.456 640.008 877.725 701.827 893.965 731.996C902.598 748.002 919.772 782.009 927.192 822.982C931.894 822.838 937.071 823.52 942.615 824.938C962.016 774.673 926.164 720.532 909.77 705.454C903.151 699.036 902.833 696.16 906.114 696.296C923.901 712.016 947.251 743.634 955.747 779.322C959.621 795.595 960.447 812.702 956.29 829.586C958.324 830.43 960.389 831.348 962.482 832.338C993.623 847.493 1005.14 860.672 999.603 878.658C997.779 878.594 995.985 878.601 994.235 878.643C994.072 878.647 993.91 878.652 993.747 878.656C998.257 864.399 988.266 853.883 961.645 841.846C934.034 829.706 912.032 830.914 908.313 855.535C908.075 856.825 907.884 858.139 907.738 859.472C905.675 860.188 903.601 861.102 901.522 862.239C888.557 869.329 881.48 882.193 877.544 897.971C873.611 913.737 872.484 932.797 871.399 954.222C871.399 954.226 871.399 954.229 871.399 954.233C870.736 965.006 866.304 979.577 861.809 995.011C816.577 1027.26 753.8 1041.23 700.5 1004.87C696.888 999.162 692.745 993.504 688.479 987.923C685.756 984.36 682.958 980.818 680.176 977.326C685.648 977.33 690.299 976.435 694.057 974.731C698.732 972.613 702.016 969.211 703.641 964.843C706.89 956.107 703.627 943.784 693.224 929.712C682.821 915.641 665.204 899.76 639.315 883.893C639.315 883.893 639.311 883.893 639.311 883.889C620.292 872.064 609.656 857.57 604.677 841.833C599.698 826.094 600.396 809.076 604.234 792.274C611.599 760.023 630.524 728.656 642.599 708.971C645.85 706.581 643.76 713.409 630.375 738.25C618.378 760.963 595.951 813.378 626.658 854.293C627.479 825.176 634.436 795.48 646.117 767.703C663.131 729.16 698.717 662.322 701.544 609.051C703.001 610.109 708.009 613.486 710.24 614.754C710.244 614.76 710.25 614.76 710.254 614.761C716.783 618.603 721.686 624.22 728.036 629.32C734.399 634.431 742.348 638.845 754.358 639.544C768.375 640.355 779.058 636.016 787.811 631.014C796.551 626.019 803.533 620.492 810.147 618.334C810.158 618.328 810.168 618.328 810.177 618.325C824.155 613.957 835.268 606.225 841.592 597.207L841.592 597.208ZM930.37 842.235C936.031 842.209 942.889 844.095 950.396 847.452C970.601 856.774 976.923 864.764 971.407 876.502C966.759 885.359 946.864 899.451 933.229 895.734C919.314 892.142 912.528 872.104 914.79 856.96C916.002 846.676 921.822 842.275 930.37 842.235ZM907.51 869.91C908.652 888.429 917.82 907.317 934.034 911.405C951.778 916.077 977.36 900.862 988.161 888.452C990.315 888.366 992.421 888.261 994.466 888.211C1003.94 887.983 1011.89 888.523 1020.01 895.62L1020.03 895.644L1020.06 895.668C1026.3 900.951 1029.27 910.935 1031.84 922.119C1034.41 933.304 1036.47 945.485 1044.18 954.163L1044.2 954.175L1044.21 954.187C1059.04 970.635 1063.8 981.752 1063.4 988.848C1062.99 995.944 1057.85 1001.21 1048.36 1006.93C1029.38 1018.37 995.757 1028.32 974.28 1054.32C955.631 1076.5 932.891 1088.68 912.864 1090.26C892.837 1091.84 875.558 1083.53 865.371 1063.1L865.348 1063.05L865.324 1063.01C859.004 1050.99 861.637 1032.03 866.96 1012.03C872.284 992.033 879.933 971.498 880.957 954.808V954.782V954.756C882.04 933.371 883.238 914.695 886.832 900.286C890.427 885.876 896.087 876.117 906.115 870.633C906.582 870.378 907.046 870.137 907.507 869.909L907.51 869.91Z" fill="white"/>
<path d="M790.154 379C785.521 378.992 780.689 379.186 775.649 379.588C648.285 389.839 682.063 524.311 680.172 569.341C677.846 602.271 671.166 628.223 648.504 660.416C621.879 692.058 584.395 743.271 566.637 796.582C558.257 821.742 554.269 847.387 557.952 871.659C556.798 872.691 555.7 873.773 554.655 874.887C546.838 883.228 541.063 893.333 534.627 900.137C528.614 906.131 520.048 908.411 510.634 911.786C501.216 915.163 490.876 920.142 484.6 932.178C484.6 932.178 484.6 932.182 484.596 932.184C484.585 932.204 484.574 932.223 484.564 932.243C478.882 942.849 480.571 955.062 482.306 966.377C484.042 977.692 485.798 988.384 483.466 995.639C476.013 1016 475.062 1030.08 480.308 1040.3C485.567 1050.53 496.378 1055.05 508.597 1057.6C533.034 1062.7 541.532 1061.4 541.532 1061.4H707.546C725.211 1061.32 744.596 1053.84 775.647 1052.13C796.712 1050.44 823.027 1059.61 853.295 1057.93C854.086 1061.21 855.231 1064.37 856.798 1067.37C856.815 1067.4 856.83 1067.43 856.846 1067.46C868.579 1090.91 890.381 1101.63 913.615 1099.8C936.879 1097.96 961.614 1084.26 981.609 1060.48L977.943 1057.4L981.637 1060.44C1000.69 1037.35 1032.33 1027.77 1053.3 1015.13C1063.79 1008.81 1072.3 1000.89 1072.96 989.394C1073.61 977.903 1066.86 965.025 1051.34 947.805L1051.34 947.801C1051.33 947.794 1051.32 947.787 1051.32 947.78C1046.22 942.02 1043.78 931.344 1041.17 919.975C1038.56 908.614 1035.64 896.358 1026.31 888.415C1026.29 888.399 1026.27 888.384 1026.25 888.368C1022.54 885.133 1018.68 882.937 1014.79 881.462C1027.77 843.001 1022.67 804.702 1009.58 770.094C993.499 727.62 965.432 690.61 943.998 665.293C920.005 635.048 896.538 606.333 897 563.922C897.714 499.193 904.124 379.156 790.152 379.001L790.154 379ZM805.584 478.721C812.051 478.721 817.575 480.615 823.248 484.731C829.012 488.912 833.165 494.146 836.512 501.455C839.797 508.578 841.377 515.546 841.532 523.815C841.532 524.032 841.532 524.218 841.594 524.435C841.656 532.92 840.2 540.136 836.977 547.507C835.138 551.713 833.026 555.243 830.498 558.299C829.64 557.888 828.749 557.492 827.824 557.112C821.417 554.369 816.502 552.624 812.405 551.203C813.89 549.419 815.127 547.304 816.214 544.659C817.856 540.664 818.662 536.762 818.817 532.116C818.817 531.93 818.879 531.775 818.879 531.559C818.972 527.099 818.383 523.29 817.082 519.387C815.718 515.299 813.983 512.357 811.473 509.911C808.963 507.464 806.453 506.349 803.447 506.256C803.306 506.248 803.165 506.248 803.026 506.248C800.199 506.256 797.744 507.225 795.203 509.35C792.538 511.58 790.555 514.429 788.913 518.394C787.27 522.358 786.465 526.291 786.31 530.967C786.279 531.153 786.279 531.308 786.279 531.494C786.225 534.064 786.388 536.419 786.785 538.706C781 535.825 775.547 533.861 770.431 532.644C770.139 530.432 769.97 528.15 769.916 525.764V525.114C769.823 516.659 771.218 509.412 774.472 502.041C777.726 494.671 781.754 489.375 787.425 485.07C793.096 480.765 798.674 478.783 805.275 478.721C805.378 478.721 805.481 478.721 805.584 478.721ZM717.066 485.725C721.356 485.735 725.195 487.167 729.166 490.337C733.473 493.774 736.727 498.172 739.454 504.366C742.181 510.56 743.638 516.754 744.041 524.063V524.124C744.236 527.194 744.212 530.084 743.97 532.882C743.121 533.123 742.29 533.384 741.475 533.664C736.849 535.256 732.772 537.424 729.219 539.769C729.567 537.316 729.618 534.828 729.352 532.053C729.321 531.898 729.321 531.774 729.321 531.619C728.949 527.934 728.174 524.837 726.873 521.709C725.478 518.457 723.929 516.165 721.883 514.4C720.03 512.8 718.278 512.065 716.352 512.08C716.152 512.08 715.951 512.091 715.747 512.108C713.578 512.294 711.781 513.347 710.076 515.422C708.372 517.497 707.257 520.067 706.451 523.474C705.645 526.88 705.428 530.225 705.769 534.065C705.769 534.22 705.8 534.344 705.8 534.499C706.172 538.215 706.916 541.312 708.248 544.44C709.612 547.661 711.192 549.953 713.238 551.718C713.58 552.014 713.919 552.28 714.256 552.517C712.129 554.153 711.113 554.908 709.37 556.188C708.252 557.008 706.92 557.984 705.372 559.124C701.997 555.964 699.364 551.992 697.061 546.763C694.334 540.569 692.878 534.375 692.444 527.066V527.005C692.041 519.696 692.754 513.409 694.768 506.905C696.782 500.401 699.478 495.694 703.383 491.823C707.288 487.952 711.223 486 715.965 485.753C716.335 485.732 716.702 485.723 717.066 485.725ZM757.323 536.432C767.295 536.393 779.295 539.66 793.822 548.995C802.745 554.794 809.688 555.279 825.676 562.122L825.695 562.131L825.715 562.138C833.408 565.292 837.923 569.404 840.129 573.733C842.335 578.063 842.389 582.758 840.542 587.697C836.85 597.575 825.063 607.971 808.522 613.133L808.506 613.14L808.492 613.147C800.427 615.765 793.394 621.548 785.103 626.287C776.812 631.025 767.43 634.846 754.673 634.108C743.814 633.476 737.322 629.791 731.452 625.077C725.582 620.362 720.467 614.439 712.977 610.044L712.958 610.032L712.938 610.021C700.873 603.206 694.286 595.323 692.219 588.49C690.152 581.656 692.092 575.824 698.078 571.34C704.808 566.3 709.483 562.871 712.597 560.587C715.691 558.318 716.978 557.467 717.963 556.522C717.968 556.514 717.973 556.511 717.979 556.507L717.983 556.499C723.04 551.715 731.101 543 743.251 538.82C747.434 537.381 752.1 536.452 757.323 536.432ZM827.052 577.646C822.749 577.902 818.243 580.116 812.995 583.044C807.747 585.972 801.846 589.717 795.451 593.406C782.661 600.782 767.938 607.837 753.306 607.837C738.652 607.837 726.944 601.073 718.162 594.118C713.771 590.641 710.147 587.138 707.252 584.428C705.804 583.073 704.549 581.919 703.377 581.017C702.206 580.115 701.253 579.221 699.293 579.221L699.199 583.337C699.058 584.714 698.914 584.671 698.971 584.709C699.063 584.769 699.517 584.926 700.048 585.334C700.909 585.997 702.105 587.078 703.524 588.406C706.361 591.062 710.132 594.713 714.775 598.39C724.059 605.743 736.972 613.288 753.306 613.288C769.664 613.288 785.139 605.647 798.178 598.127C804.698 594.367 810.619 590.613 815.654 587.804C820.689 584.995 824.925 583.233 827.378 583.087L827.052 577.646ZM841.592 597.208C852.456 640.008 877.725 701.827 893.965 731.996C902.598 748.002 919.772 782.009 927.192 822.982C931.894 822.838 937.071 823.52 942.615 824.938C962.016 774.673 926.164 720.532 909.77 705.454C903.151 699.036 902.833 696.16 906.114 696.296C923.901 712.016 947.251 743.634 955.747 779.322C959.621 795.595 960.447 812.702 956.29 829.586C958.324 830.43 960.389 831.348 962.482 832.338C993.623 847.493 1005.14 860.672 999.603 878.658C997.779 878.594 995.985 878.601 994.235 878.643C994.072 878.647 993.91 878.652 993.747 878.656C998.257 864.399 988.266 853.883 961.645 841.846C934.034 829.706 912.032 830.914 908.313 855.535C908.075 856.825 907.884 858.139 907.738 859.472C905.675 860.188 903.601 861.102 901.522 862.239C888.557 869.329 881.48 882.193 877.544 897.971C873.611 913.737 872.484 932.797 871.399 954.222C871.399 954.226 871.399 954.229 871.399 954.233C870.735 965.006 866.303 979.577 861.809 995.011C816.577 1027.26 753.8 1041.23 700.5 1004.87C696.888 999.162 692.745 993.504 688.479 987.923C685.756 984.36 682.958 980.818 680.176 977.326C685.648 977.33 690.299 976.435 694.057 974.731C698.732 972.613 702.016 969.211 703.641 964.843C706.89 956.107 703.627 943.784 693.224 929.712C682.821 915.641 665.204 899.76 639.315 883.893C639.315 883.893 639.311 883.893 639.311 883.889C620.292 872.064 609.656 857.57 604.677 841.833C599.698 826.094 600.396 809.076 604.234 792.274C611.599 760.023 630.524 728.656 642.599 708.971C645.85 706.581 643.76 713.409 630.375 738.25C618.378 760.963 595.951 813.378 626.658 854.293C627.479 825.176 634.436 795.48 646.117 767.703C663.131 729.16 698.717 662.322 701.544 609.051C703.001 610.109 708.009 613.486 710.24 614.754C710.244 614.76 710.25 614.76 710.254 614.761C716.783 618.603 721.686 624.22 728.036 629.32C734.399 634.431 742.348 638.845 754.358 639.544C768.375 640.355 779.058 636.016 787.811 631.014C796.551 626.019 803.533 620.492 810.147 618.334C810.158 618.328 810.168 618.328 810.177 618.325C824.155 613.957 835.268 606.225 841.592 597.207L841.592 597.208ZM930.37 842.235C936.031 842.209 942.889 844.095 950.396 847.452C970.601 856.774 976.923 864.764 971.407 876.502C966.759 885.359 946.864 899.451 933.228 895.734C919.314 892.142 912.528 872.104 914.79 856.96C916.002 846.676 921.822 842.275 930.37 842.235ZM907.509 869.91C908.652 888.429 917.82 907.317 934.034 911.405C951.778 916.077 977.36 900.862 988.161 888.452C990.315 888.366 992.421 888.261 994.466 888.211C1003.94 887.983 1011.89 888.523 1020.01 895.62L1020.03 895.644L1020.06 895.668C1026.3 900.951 1029.27 910.935 1031.84 922.119C1034.41 933.304 1036.47 945.485 1044.18 954.163L1044.2 954.175L1044.21 954.187C1059.04 970.635 1063.8 981.752 1063.4 988.848C1062.99 995.944 1057.85 1001.21 1048.36 1006.93C1029.38 1018.37 995.757 1028.32 974.28 1054.32C955.631 1076.5 932.891 1088.68 912.864 1090.26C892.837 1091.84 875.558 1083.53 865.371 1063.1L865.348 1063.05L865.324 1063.01C859.004 1050.99 861.637 1032.03 866.96 1012.03C872.284 992.033 879.933 971.498 880.957 954.808V954.782V954.756C882.04 933.371 883.238 914.695 886.832 900.286C890.427 885.876 896.087 876.117 906.115 870.633C906.582 870.378 907.046 870.137 907.507 869.909L907.509 869.91Z" fill="black"/>
<path d="M617.608 771C628.815 771 642.077 779.954 647.228 791L762.872 1039H880.5C890.165 1039 898 1046.84 898 1056.5C898 1066.16 890.165 1074 880.5 1074H391.585C380.377 1074 367.116 1065.05 361.965 1054L239.326 791C234.176 779.954 239.086 771 250.293 771H617.608Z" fill="black"/>
<path d="M611.509 781C622.717 781 635.978 789.954 641.129 801L757.546 1052.66C758.159 1053.99 757.191 1055.5 755.731 1055.5H752.874C752.095 1055.5 751.386 1055.05 751.059 1054.34L637.129 808C631.978 796.954 618.717 788 607.509 788H251.302C250.51 788 249.793 787.533 249.473 786.809L248.145 783.81C247.56 782.487 248.528 781 249.974 781L611.509 781Z" fill="white"/>
<path d="M487.508 878.314C491.71 887.323 487.057 894.627 477.116 894.627C467.174 894.627 455.71 887.323 451.508 878.314C447.307 869.304 451.96 862 461.901 862C471.842 862 483.307 869.304 487.508 878.314Z" fill="white"/>
</svg>
