<svg class="h-full" viewBox="0 0 1073 1100" fill="none" xmlns="http://www.w3.org/2000/svg">
<path d="M827.898 0.117108C832.88 -0.789292 841.486 3.74248 838.316 7.36808C828.803 18.6981 810.685 13.2603 807.967 27.3095C803.89 46.797 805.703 59.4869 792.567 73.5361C779.884 86.6789 771.729 96.1962 773.541 113.871C776.259 147.861 786.225 164.176 786.678 197.713C786.678 222.639 784.413 237.142 771.277 257.989C752.705 286.994 742.287 303.762 741.381 337.299C740.475 359.505 739.116 371.289 729.604 390.776C729.49 391.021 729.362 391.27 729.225 391.522C723.678 394.304 718.706 397.489 714.251 401.016C714.22 400.797 714.202 400.557 714.202 400.294C714.202 383.072 716.468 374.008 717.826 356.333C718.279 348.628 711.938 335.033 706.049 340.018C697.896 346.363 696.084 354.067 686.118 355.427C661.205 359.052 640.369 348.63 624.515 368.117C618.627 375.368 619.08 382.619 623.157 390.776C632.669 412.53 629.951 425.673 630.404 448.786C630.404 467.821 624.968 479.605 634.028 495.92C639.463 506.796 648.976 509.063 651.694 520.846C653.053 530.363 654.412 534.895 657.582 543.506C661.206 554.382 661.206 562.087 670.718 568.432C673.847 570.84 676.881 572.768 679.759 574.557C677.086 605.059 669.956 629.941 648.504 660.416C626.178 686.949 596.218 727.246 576.655 771H250.293C239.086 771 234.176 779.954 239.326 791L340.859 1008.74C320.725 1018.24 306.18 1027.09 280.259 1030.24C263.047 1032.51 249.458 1030.24 239.946 1015.74C222.733 991.721 212.767 979.938 199.631 953.199C188.307 931.445 162.488 898.362 186.949 893.377C195.555 892.017 196.914 885.219 205.52 882.047L205.914 881.922C214.335 879.259 221.046 877.138 229.074 882.047C237.681 887.938 263.499 890.657 255.346 884.312C245.381 877.515 241.304 873.436 230.433 868.904C221.374 865.732 215 863.013 207.784 863.013C192.837 863.013 183.777 877.062 171.094 868.904C162.035 863.466 171.094 851.682 163.847 843.977C157.958 838.539 152.975 835.82 145.275 835.82C129.874 835.82 119.002 838.086 108.584 827.209C98.6193 817.692 94.5424 811.347 82.3128 805.003C72.8004 800.924 60.5701 796.845 56.4934 805.909C47.8871 824.49 36.1097 835.82 27.9563 843.977C17.5381 850.775 2.1366 847.603 0.777609 835.82C-2.39316 812.254 4.40184 799.111 16.179 777.81C28.4091 755.604 35.2036 735.21 61.0227 731.584C76.8766 729.771 99.0718 736.116 99.9778 719.801C101.337 690.796 104.508 669.949 84.5774 648.648C76.424 640.491 72.3472 623.722 83.6712 619.19C93.1835 615.565 99.9779 620.55 108.584 625.988C116.738 631.88 126.703 633.692 133.497 625.988C142.557 616.018 146.634 602.875 160.676 604.687C178.342 607.407 187.401 609.673 205.52 609.673C222.28 609.673 232.698 617.377 248.099 609.673C268.935 600.156 289.318 605.594 300.19 584.747C303.813 577.949 304.267 566.619 296.567 564.806C276.183 560.727 266.218 556.648 248.099 546.678C229.98 537.16 197.367 530.815 209.144 513.594C215.485 504.077 219.562 496.825 231.339 494.559C249.911 491.84 263.499 475.979 261.235 456.944C258.064 436.55 254.441 421.594 268.03 405.732C278.901 393.043 287.507 382.619 283.43 365.851C277.994 346.363 266.916 334.754 274.616 313C279.5 302 300.19 292.432 321.48 292.432C341.41 292.432 353.188 302.403 372.212 294.698C383.989 290.166 391.237 289.713 404.372 290.166C412.526 291.072 420.226 291.979 427.474 293.339C446.952 296.511 463.258 298.777 481.377 284.274C491.342 276.57 499.043 276.116 512.179 274.757C523.503 273.85 530.751 274.304 540.263 266.6C547.51 260.708 553.852 260.708 563.818 260.708C582.842 260.708 598.243 254.816 605.491 236.688C618.627 204.058 624.968 187.743 636.292 154.206C642.181 135.172 651.693 127.92 663.47 111.151C672.982 97.5553 686.119 65.3786 692.007 80.787C694.725 88.9446 689.29 100.728 697.896 100.728C720.997 100.728 737.757 105.26 754.517 88.9452C777.618 66.7384 769.012 40.452 792.567 17.7919C803.891 6.91528 812.044 3.28949 827.898 0.117108Z" fill="#21C844"/>
<path fill-rule="evenodd" clip-rule="evenodd" d="M790.152 379.001C904.124 379.157 897.715 499.193 897 563.922C896.538 606.333 920.004 635.048 943.997 665.293C965.432 690.611 993.499 727.62 1009.58 770.094C1022.67 804.703 1027.77 843.001 1014.79 881.463C1018.68 882.938 1022.54 885.133 1026.25 888.368C1026.27 888.384 1026.29 888.399 1026.31 888.415C1035.64 896.357 1038.56 908.614 1041.17 919.975C1043.78 931.344 1046.22 942.02 1051.32 947.78C1051.32 947.787 1051.33 947.794 1051.34 947.801L1051.34 947.805C1066.86 965.025 1073.61 977.903 1072.96 989.394C1072.3 1000.89 1063.79 1008.81 1053.3 1015.13C1032.33 1027.77 1000.69 1037.35 981.637 1060.44L977.943 1057.4L981.608 1060.48C961.614 1084.26 936.88 1097.96 913.615 1099.8C892.664 1101.45 872.878 1092.89 860.589 1074H391.585C380.377 1074 367.116 1065.05 361.965 1054L239.326 791C234.176 779.954 239.086 771 250.293 771H576.654C596.218 727.246 626.178 686.949 648.504 660.416C671.166 628.223 677.846 602.271 680.172 569.341C682.062 524.31 648.285 389.839 775.65 379.588C780.688 379.186 785.52 378.992 790.152 379.001Z" fill="white"/>
<path d="M827.378 583.087C824.926 583.233 820.69 584.995 815.655 587.805C810.62 590.614 804.699 594.367 798.179 598.127C785.14 605.647 769.664 613.288 753.307 613.288C736.973 613.288 724.06 605.744 714.775 598.391C710.133 594.714 706.362 591.062 703.524 588.406C702.105 587.079 700.91 585.997 700.048 585.334C699.519 584.926 699.064 584.769 698.971 584.709C698.915 584.672 699.059 584.71 699.199 583.337L699.292 579.221C701.252 579.221 702.206 580.115 703.377 581.016C704.549 581.918 705.805 583.074 707.252 584.429C710.148 587.138 713.772 590.641 718.163 594.118C726.944 601.073 738.653 607.837 753.307 607.837C767.939 607.837 782.662 600.782 795.452 593.406C801.847 589.718 807.748 585.973 812.996 583.045C818.243 580.117 822.75 577.903 827.053 577.646L827.378 583.087Z" fill="black"/>
<path fill-rule="evenodd" clip-rule="evenodd" d="M790.153 379.001C904.124 379.157 897.715 499.193 897.001 563.922C896.538 606.332 920.005 635.048 943.998 665.293C965.432 690.611 993.5 727.621 1009.58 770.095C1022.67 804.703 1027.77 843.002 1014.79 881.463C1018.68 882.938 1022.54 885.134 1026.25 888.368C1026.27 888.384 1026.29 888.399 1026.31 888.415C1035.64 896.357 1038.56 908.614 1041.17 919.975C1043.79 931.344 1046.22 942.02 1051.32 947.78C1051.32 947.787 1051.33 947.794 1051.34 947.802L1051.34 947.806C1066.86 965.025 1073.61 977.903 1072.96 989.394C1072.3 1000.89 1063.79 1008.81 1053.3 1015.13C1032.33 1027.77 1000.69 1037.35 981.637 1060.44L981.609 1060.48C961.615 1084.26 936.88 1097.96 913.616 1099.8C892.665 1101.45 872.879 1092.89 860.589 1074H391.585C380.378 1074 367.116 1065.05 361.965 1054L239.327 791C234.176 779.955 239.086 771 250.293 771H576.655C596.218 727.246 626.178 686.949 648.504 660.416C671.166 628.223 677.846 602.271 680.172 569.341C682.062 524.31 648.286 389.839 775.65 379.588C780.688 379.186 785.521 378.992 790.153 379.001ZM907.507 869.909C907.047 870.137 906.583 870.377 906.116 870.633C896.087 876.117 890.427 885.876 886.833 900.286C883.238 914.696 882.041 933.372 880.958 954.757V954.807C879.934 971.498 872.284 992.034 866.96 1012.03C864.451 1021.46 862.54 1030.65 861.882 1039H880.501C890.165 1039 898 1046.84 898.001 1056.5C898 1066.16 890.165 1074 880.501 1074H872.365C882.64 1086.48 896.876 1091.52 912.864 1090.26C932.891 1088.68 955.632 1076.5 974.281 1054.32C995.758 1028.32 1029.38 1018.37 1048.36 1006.93C1057.85 1001.21 1062.99 995.943 1063.4 988.848C1063.8 981.752 1059.04 970.634 1044.21 954.187L1044.2 954.176L1044.19 954.163C1036.47 945.485 1034.41 933.303 1031.84 922.119C1029.27 910.935 1026.3 900.951 1020.06 895.668L1020.03 895.644L1020.01 895.62C1011.89 888.524 1003.94 887.983 994.466 888.212C992.422 888.261 990.315 888.366 988.162 888.452C977.361 900.862 951.778 916.077 934.035 911.405C917.821 907.317 908.653 888.429 907.51 869.91L907.507 869.909ZM249.974 781C248.528 781 247.56 782.487 248.145 783.809L249.473 786.809C249.794 787.533 250.511 788 251.302 788H607.508C618.716 788 631.978 796.954 637.128 808L751.059 1054.34C751.386 1055.05 752.095 1055.5 752.875 1055.5H755.731C757.191 1055.5 758.159 1053.99 757.546 1052.66L641.128 801C635.978 789.954 622.716 781 611.508 781H249.974ZM841.592 597.208C835.268 606.225 824.154 613.957 810.177 618.325C810.168 618.328 810.158 618.328 810.148 618.335C803.533 620.492 796.551 626.019 787.811 631.014C779.058 636.015 768.375 640.354 754.358 639.544C742.349 638.845 734.399 634.431 728.037 629.32C721.687 624.22 716.783 618.604 710.254 614.762C710.25 614.761 710.245 614.76 710.241 614.754C708.01 613.486 703.003 610.11 701.544 609.052C698.718 662.322 663.131 729.16 646.118 767.703C644.164 772.349 642.342 777.05 640.659 781.792C643.397 784.548 645.68 787.679 647.228 791L756.677 1025.72C794.184 1029.71 831.846 1016.37 861.809 995.011C866.304 979.578 870.736 965.006 871.399 954.233V954.222C872.484 932.797 873.612 913.737 877.544 897.972C881.48 882.193 888.557 869.329 901.522 862.239C903.601 861.102 905.676 860.187 907.739 859.472C907.885 858.139 908.076 856.825 908.314 855.535C912.033 830.914 934.035 829.706 961.646 841.847C988.266 853.884 998.257 864.399 993.748 878.656C993.91 878.652 994.073 878.648 994.236 878.643C995.985 878.601 997.78 878.594 999.603 878.658C1005.14 860.672 993.623 847.493 962.483 832.339C960.39 831.349 958.324 830.43 956.291 829.586C960.447 812.703 959.621 795.595 955.748 779.322C947.252 743.635 923.902 712.016 906.115 696.296C902.834 696.16 903.152 699.036 909.77 705.454C926.164 720.532 962.016 774.674 942.616 824.937C937.072 823.52 931.894 822.838 927.193 822.982C919.773 782.01 902.598 748.002 893.965 731.996C877.725 701.827 852.456 640.007 841.592 597.208ZM930.371 842.235C921.823 842.275 916.002 846.676 914.791 856.96C912.529 872.104 919.315 892.142 933.229 895.734C946.864 899.45 966.759 885.359 971.408 876.502C976.923 864.765 970.601 856.774 950.397 847.452C942.89 844.096 936.032 842.209 930.371 842.235ZM461.901 862C451.96 862 447.307 869.304 451.508 878.313C455.71 887.323 467.175 894.627 477.116 894.627C487.057 894.627 491.71 887.323 487.508 878.313C483.307 869.304 471.842 862 461.901 862ZM630.376 738.251C643.761 713.41 645.85 706.581 642.599 708.972C633.21 724.277 619.682 746.645 610.665 771H616.748C620.769 757.646 626.203 746.151 630.376 738.251ZM757.324 536.432C752.101 536.452 747.434 537.382 743.251 538.82C731.101 543 723.04 551.715 717.983 556.499L717.979 556.507C717.974 556.511 717.968 556.515 717.963 556.522C716.978 557.468 715.691 558.318 712.597 560.587C709.483 562.871 704.808 566.3 698.079 571.341C692.093 575.824 690.152 581.657 692.219 588.49C694.287 595.323 700.874 603.206 712.938 610.021L712.959 610.032L712.977 610.044C720.467 614.439 725.583 620.363 731.453 625.077C737.322 629.791 743.815 633.476 754.674 634.108C767.43 634.846 776.812 631.025 785.103 626.287C793.394 621.549 800.427 615.765 808.492 613.146L808.506 613.141L808.522 613.134C825.062 607.972 836.85 597.575 840.542 587.697C842.389 582.758 842.335 578.063 840.129 573.733C837.923 569.404 833.407 565.293 825.715 562.139L825.696 562.131L825.676 562.122C809.689 555.279 802.745 554.794 793.822 548.995C779.295 539.661 767.295 536.393 757.324 536.432ZM717.066 485.725C716.703 485.724 716.335 485.733 715.965 485.753C711.224 486.001 707.288 487.952 703.383 491.823C699.479 495.694 696.782 500.402 694.768 506.905C692.754 513.409 692.041 519.696 692.444 527.005V527.066C692.878 534.375 694.335 540.57 697.062 546.764C699.364 551.992 701.998 555.964 705.373 559.124C706.92 557.984 708.253 557.008 709.371 556.188C711.114 554.908 712.129 554.153 714.256 552.517C713.919 552.28 713.58 552.014 713.238 551.719C711.193 549.953 709.612 547.661 708.249 544.44C706.916 541.313 706.172 538.215 705.8 534.499C705.8 534.345 705.769 534.22 705.769 534.065C705.428 530.225 705.646 526.88 706.452 523.474C707.257 520.067 708.372 517.497 710.077 515.422C711.781 513.347 713.579 512.294 715.748 512.108C715.951 512.091 716.153 512.08 716.352 512.08C718.279 512.066 720.03 512.801 721.883 514.4C723.928 516.166 725.478 518.458 726.873 521.709C728.174 524.837 728.949 527.934 729.321 531.619C729.321 531.773 729.321 531.898 729.352 532.053C729.619 534.827 729.567 537.317 729.219 539.769C732.772 537.425 736.85 535.255 741.476 533.664C742.29 533.384 743.122 533.123 743.97 532.882C744.212 530.084 744.237 527.194 744.042 524.125V524.063C743.639 516.755 742.181 510.56 739.455 504.366C736.728 498.172 733.474 493.774 729.167 490.337C725.196 487.168 721.356 485.736 717.066 485.725ZM805.275 478.722C798.674 478.784 793.096 480.766 787.425 485.07C781.755 489.375 777.726 494.671 774.472 502.042C771.219 509.412 769.824 516.66 769.917 525.114V525.765C769.97 528.15 770.14 530.432 770.431 532.643C775.548 533.861 781 535.825 786.786 538.706C786.389 536.42 786.225 534.064 786.279 531.494C786.279 531.309 786.279 531.153 786.31 530.968C786.465 526.291 787.271 522.357 788.914 518.393C790.556 514.43 792.539 511.58 795.204 509.35C797.744 507.225 800.199 506.256 803.027 506.248C803.165 506.248 803.306 506.247 803.447 506.256C806.453 506.349 808.963 507.464 811.473 509.911C813.983 512.358 815.719 515.3 817.083 519.388C818.384 523.289 818.972 527.099 818.879 531.558C818.879 531.775 818.818 531.931 818.818 532.116C818.663 536.761 817.857 540.664 816.214 544.659C815.127 547.304 813.891 549.419 812.406 551.203C816.502 552.624 821.418 554.37 827.825 557.112C828.749 557.492 829.641 557.888 830.499 558.3C833.026 555.244 835.138 551.713 836.977 547.508C840.2 540.137 841.656 532.92 841.594 524.434C841.532 524.218 841.533 524.032 841.533 523.815C841.378 515.547 839.797 508.578 836.512 501.455C833.166 494.146 829.012 488.912 823.249 484.731C817.575 480.616 812.051 478.721 805.584 478.721C805.482 478.721 805.378 478.722 805.275 478.722Z" fill="black"/>
</svg>
